#!OML:ASF F:\twosubjects\two\wednesday\Session 1\rory1.ASF
:FULLY-SPECIFIED
:DEGREES
98
root 15.5681 18.5544 -0.453544 0.785887 7.06276 -3.89151
lowerback 2.91959 -0.261164 6.12561
upperback 0.177199 -0.096696 2.91852
thorax -1.46247 -0.0773195 -0.423971
lowerneck -9.10411 -3.49847 -5.29176
upperneck 12.4882 -3.84683 -0.772223
head 5.35515 -2.17786 0.337771
rclavicle 8.19987e-015 -9.54166e-015
rhumerus -70.5751 -40.827 -33.8928
rradius 10.0098
rwrist 44.133
rhand -12.4145 28.8597
rfingers 7.12502
rthumb 13.6575 -0.672195
lclavicle 8.19987e-015 -9.54166e-015
lhumerus 28.4415 -3.20746 81.7028
lradius 25.2106
lwrist 22.2473
lhand -19.6088 21.8057
lfingers 7.12502
lthumb 6.7175 51.6792
rfemur 0.846339 6.25709 30.5584
rtibia 15.8326
rfoot -11.6982 -9.03788
rtoes 14.0171
lfemur -46.7571 -2.73189 -11.1377
ltibia 29.1939
lfoot -11.0883 2.91399
ltoes -23.2947
99
root 15.5943 18.5697 -0.319361 0.828612 6.84939 -3.61327
lowerback 2.90668 -0.306267 5.99148
upperback 0.260924 -0.169719 2.781
thorax -1.37247 -0.110118 -0.488446
lowerneck -9.18513 -3.38532 -5.10561
upperneck 12.4623 -3.7019 -0.879162
head 5.35147 -2.10548 0.28446
rclavicle 5.2181e-015 3.18055e-015
rhumerus -69.2019 -40.2369 -35.7202
rradius 9.98476
rwrist 42.9987
rhand -12.7681 28.0003
rfingers 7.12502
rthumb 13.3167 -1.55425
lclavicle 5.2181e-015 3.18055e-015
lhumerus 29.1828 -3.12686 80.7985
lradius 26.3137
lwrist 23.0887
lhand -18.9628 22.1521
lfingers 7.12502
lthumb 7.34101 52.0048
rfemur 1.88267 5.86951 30.178
rtibia 14.7057
rfoot -11.3191 -8.37629
rtoes 14.1736
lfemur -47.006 -3.09588 -11.1354
ltibia 27.8107
lfoot -10.6209 3.66235
ltoes -22.7285
100
root 15.6093 18.5659 -0.177953 0.674102 6.43871 -3.98137
lowerback 2.9748 -0.249531 6.3033
upperback 0.421345 -0.0864768 2.8645
thorax -1.24114 -0.0643553 -0.579359
lowerneck -9.33123 -3.30981 -4.72373
upperneck 12.4729 -3.59621 -1.25132
head 5.36275 -2.06204 0.112613
rclavicle 2.20651e-014 -4.77083e-015
rhumerus -68.0086 -39.6872 -37.3649
rradius 10.1165
rwrist 41.7458
rhand -13.2618 28.2703
rfingers 7.12502
rthumb 12.8408 -1.31468
lclavicle 2.20651e-014 -4.77083e-015
lhumerus 29.9739 -2.33018 80.7687
lradius 27.0979
lwrist 22.7027
lhand -18.2719 21.9102
lfingers 7.12502
lthumb 8.00794 51.7385
rfemur 3.1764 5.8929 30.6295
rtibia 13.4485
rfoot -10.8389 -8.10787
rtoes 12.4316
lfemur -47.2033 -3.18303 -10.3601
ltibia 26.6005
lfoot -10.0925 4.28476
ltoes -21.6587
101
root 15.6225 18.5573 -0.0309145 0.502549 6.09981 -4.49993
lowerback 3.01663 -0.227213 6.72099
upperback 0.549312 -0.0450278 3.03338
thorax -1.13028 -0.0400266 -0.639013
lowerneck -9.47811 -3.2646 -4.64564
upperneck 12.636 -3.51499 -1.39664
head 5.43324 -2.03184 0.056762
rclavicle 5.86415e-015 -1.74931e-014
rhumerus -67.9753 -39.9118 -36.8533
rradius 9.92112
rwrist 42.2262
rhand -13.4437 29.073
rfingers 7.12502
rthumb 12.6655 -0.522926
lclavicle 5.86415e-015 -1.74931e-014
lhumerus 30.9341 -1.74454 80.6148
lradius 27.5405
lwrist 22.6117
lhand -19.3206 20.5424
lfingers 7.12502
lthumb 6.99571 50.4068
rfemur 4.5176 6.10962 31.3182
rtibia 12.208
rfoot -10.3227 -8.21563
rtoes 7.83551
lfemur -47.4189 -3.44854 -9.31558
ltibia 25.5635
lfoot -9.75536 4.97095
ltoes -21.6459
102
root 15.6456 18.5649 0.112705 0.541663 5.83058 -4.37601
lowerback 3.04612 -0.239501 6.6326
upperback 0.541081 -0.061736 2.99218
thorax -1.1563 -0.0490401 -0.631687
lowerneck -9.48594 -3.18528 -4.69265
upperneck 12.7178 -3.40451 -1.35492
head 5.46009 -1.97873 0.0848969
rclavicle -9.69075e-015 3.18055e-015
rhumerus -67.9581 -40.0755 -36.3929
rradius 9.73063
rwrist 42.6751
rhand -13.6747 29.0942
rfingers 7.12502
rthumb 12.4428 -0.515466
lclavicle -9.69075e-015 3.18055e-015
lhumerus 31.5984 -2.03315 79.4821
lradius 28.392
lwrist 23.906
lhand -20.3622 19.7599
lfingers 7.12502
lthumb 5.99012 49.6552
rfemur 5.70861 6.17969 31.1781
rtibia 10.8953
rfoot -9.77515 -7.97893
rtoes 7.13255
lfemur -47.687 -3.96048 -8.93717
ltibia 24.6741
lfoot -9.86629 5.90418
ltoes -21.6069
103
root 15.6674 18.5746 0.250119 0.536717 5.47638 -4.39945
lowerback 3.22472 -0.208137 6.65226
upperback 0.481234 0.0013398 3.00717
thorax -1.31466 -0.0228284 -0.629126
lowerneck -9.49543 -3.10195 -4.77457
upperneck 12.86 -3.28883 -1.26516
head 5.50737 -1.92243 0.133562
rclavicle -3.42904e-015 -2.3059e-014
rhumerus -68.177 -40.1767 -35.7935
rradius 9.89762
rwrist 42.756
rhand -13.3543 28.5747
rfingers 7.12502
rthumb 12.7516 -1.01592
lclavicle -3.42904e-015 -2.3059e-014
lhumerus 32.0403 -2.32694 78.4205
lradius 29.3787
lwrist 24.9987
lhand -20.1396 20.0747
lfingers 7.12502
lthumb 6.20506 49.9638
rfemur 6.86115 6.23329 31.1695
rtibia 9.61279
rfoot -9.08491 -7.58759
rtoes 9.35924
lfemur -47.8181 -4.07257 -8.6433
ltibia 23.8285
lfoot -9.99755 6.60885
ltoes -21.1059
104
root 15.685 18.5745 0.389315 0.359855 5.15036 -4.71544
lowerback 3.46167 -0.165353 6.90234
upperback 0.521301 0.0892718 3.1215
thorax -1.40085 0.0185048 -0.653491
lowerneck -9.61059 -3.09592 -4.92727
upperneck 12.9648 -3.26468 -1.15091
head 5.56419 -1.912 0.192919
rclavicle -2.6339e-015 -7.95139e-015
rhumerus -68.2809 -40.478 -35.1689
rradius 9.94913
rwrist 42.8968
rhand -12.8142 28.1166
rfingers 7.12502
rthumb 13.2723 -1.44083
lclavicle -2.6339e-015 -7.95139e-015
lhumerus 32.5116 -2.02635 78.215
lradius 30.1899
lwrist 25.0314
lhand -20.1157 20.1721
lfingers 7.12502
lthumb 6.22815 50.0605
rfemur 8.02374 6.22124 31.5641
rtibia 8.61689
rfoot -8.77161 -7.3201
rtoes 8.53319
lfemur -47.7795 -4.07991 -8.12666
ltibia 23.0171
lfoot -10.0004 7.15969
ltoes -20.5766
105
root 15.7089 18.574 0.533474 0.257403 4.96551 -4.45781
lowerback 3.59047 -0.174012 6.6406
upperback 0.584601 0.0751419 3.07706
thorax -1.4088 0.0134285 -0.553545
lowerneck -9.34068 -3.06156 -4.92801
upperneck 12.6005 -3.22032 -1.30121
head 5.4014 -1.89409 0.157024
rclavicle 6.16232e-015 -7.95139e-016
rhumerus -68.0762 -40.992 -34.717
rradius 9.71027
rwrist 43.4192
rhand -12.8673 28.0088
rfingers 7.12502
rthumb 13.2211 -1.55196
lclavicle 6.16232e-015 -7.95139e-016
lhumerus 33.0181 -1.84835 77.9089
lradius 30.9603
lwrist 25.3575
lhand -20.5038 19.8449
lfingers 7.12502
lthumb 5.85346 49.7441
rfemur 9.24417 6.08303 31.2799
rtibia 7.44556
rfoot -8.62659 -7.074
rtoes 4.46308
lfemur -47.8375 -4.6652 -7.96061
ltibia 22.4112
lfoot -10.2912 7.91553
ltoes -19.3859
106
root 15.7328 18.5709 0.684335 0.0906053 4.77977 -4.49731
lowerback 3.64821 -0.20679 6.64572
upperback 0.706227 0.0301007 3.13014
thorax -1.31808 -0.00459295 -0.499723
lowerneck -9.1233 -2.99607 -4.96467
upperneck 12.3337 -3.1366 -1.36388
head 5.27967 -1.85392 0.155468
rclavicle -5.1684e-015 -3.57812e-014
rhumerus -67.9346 -41.4063 -34.3099
rradius 9.80603
rwrist 43.7192
rhand -13.0804 28.491
rfingers 7.12502
rthumb 13.0157 -1.08296
lclavicle -5.1684e-015 -3.57812e-014
lhumerus 33.5105 -1.87027 77.2885
lradius 31.7607
lwrist 26.0541
lhand -20.84 19.1206
lfingers 7.12502
lthumb 5.5288 49.0285
rfemur 10.825 5.94171 31.285
rtibia 5.66203
rfoot -7.89566 -6.67158
rtoes 1.78919
lfemur -47.8874 -5.21798 -7.48208
ltibia 22.037
lfoot -10.4896 8.66442
ltoes -19.0357
107
root 15.7545 18.5638 0.839794 -0.0785906 4.5539 -4.76753
lowerback 3.64457 -0.168022 6.90809
upperback 0.871855 0.0812111 3.19284
thorax -1.14133 0.0275754 -0.583207
lowerneck -9.39748 -3.01002 -5.14007
upperneck 12.5154 -3.14327 -1.11094
head 5.38991 -1.85196 0.256191
rclavicle -5.96354e-015 -3.97569e-015
rhumerus -68.1089 -41.8991 -33.7147
rradius 10.0746
rwrist 44.0478
rhand -13.2388 29.4679
rfingers 7.12502
rthumb 12.863 -0.115686
lclavicle -5.96354e-015 -3.97569e-015
lhumerus 34.0364 -2.0018 76.6966
lradius 32.5423
lwrist 26.662
lhand -20.8167 18.8892
lfingers 7.12502
lthumb 5.55129 48.7965
rfemur 12.7742 5.83944 31.5398
rtibia 3.27014
rfoot -6.81211 -6.08637
rtoes 1.65554
lfemur -47.8795 -5.46316 -6.99216
ltibia 21.7924
lfoot -10.4322 9.39744
ltoes -20.6545
